{"title":"Love.And.Other.Drugs.2010.720p.BRRip.x264.Feel-Free","uid":6123889,"size":2186731507,"categoryP":"video","categoryS":"hd___movies","magnet":"?xt=urn:btih:a846181976644054ee3b55ac2459e81576a7b899&amp;dn=Love.And.Other.Drugs.2010.720p.BRRip.x264.Feel-Free&amp;tr=udp%3A%2F%2Ftracker.openbittorrent.com%3A80&amp;tr=udp%3A%2F%2Fopen.demonii.com%3A1337&amp;tr=udp%3A%2F%2Ftracker.coppersurfer.tk%3A6969&amp;tr=udp%3A%2F%2Fexodus.desync.com%3A6969","seeders":0,"leechers":1,"uploader":".BONE.","files":13,"time":1295859974,"description":"Genre:Comedy | Drama\nLanguage:English\nIMDb:http://www.imdb.com/title/tt0758752/\nSource:720p.BluRay.x264-AVS720\nSubtitles:Romana\n\n\nFormat : Matroska\nFile size : 2.03 GiB\nDuration : 1h 52mn\nOverall bit rate : 2 585 Kbps\n\n\nVideo\nFormat settings, CABAC : Yes\nFormat settings, ReFrames : 4 frames\nCodec ID : V_MPEG4/ISO/AVC\nDuration : 1h 52mn\nBit rate : 2 200 Kbps\nWidth : 1 280 pixels\nHeight : 688 pixels\nDisplay aspect ratio : 1.860\nFrame rate mode : Variable\nFrame rate : 23.976 fps\nColor space : YUV\nChroma subsampling : 4:2:0\nBit depth : 8 bits\nScan type : Progressive\nBits/(Pixel*Frame) : 0.104\nStream size : 1.69 GiB (83%)\nWriting library : x264\n\n\nAudio\nID : 2\nFormat : AC-3\nFormat/Info : Audio Coding 3\nMode extension : CM (complete main)\nCodec ID : A_AC3\nDuration : 1h 52mn\nBit rate mode : Constant\nBit rate : 384 Kbps\nChannel(s) : 6 channels\nChannel positions : Front: L C R, Side: L R, LFE\nSampling rate : 48.0 KHz\nBit depth : 16 bits\nVideo delay : -1mn 5s\nStream size : 309 MiB (15%)\nLanguage : English\n\n\n\nPlot:\nMaggie (Hathaway) is an alluring free spirit who won't let anyone - or anything - tie her down. But she meets her match in Jamie (Gyllenhaal)\n &lt;a href=&quot;\nhttp://rapidhdd.com/images/956829vlcsnap-00001.png&quot; rel=&quot;nofollow&quot; target=&quot;_NEW&quot;&gt;\nhttp://rapidhdd.com/images/956829vlcsnap-00001.png&lt;/a&gt;\n &lt;a href=&quot;\nhttp://www.rapidhdd.com/images/133501vlcsnap-00002.png&quot; rel=&quot;nofollow&quot; target=&quot;_NEW&quot;&gt;\nhttp://www.rapidhdd.com/images/133501vlcsnap-00002.png&lt;/a&gt;\n &lt;a href=&quot;\nhttp://www.rapidhdd.com/images/524186vlcsnap-00003.png&quot; rel=&quot;nofollow&quot; target=&quot;_NEW&quot;&gt;\nhttp://www.rapidhdd.com/images/524186vlcsnap-00003.png&lt;/a&gt;\n &lt;a href=&quot;\nhttp://www.rapidhdd.com/images/916926vlcsnap-00008.png&quot; rel=&quot;nofollow&quot; target=&quot;_NEW&quot;&gt;\nhttp://www.rapidhdd.com/images/916926vlcsnap-00008.png&lt;/a&gt;\n &lt;a href=&quot;\nhttp://www.rapidhdd.com/images/433332vlcsnap-00007.png&quot; rel=&quot;nofollow&quot; target=&quot;_NEW&quot;&gt;\nhttp://www.rapidhdd.com/images/433332vlcsnap-00007.png&lt;/a&gt;\n &lt;a href=&quot;\nhttp://www.rapidhdd.com/images/572770vlcsnap-00004.png&quot; rel=&quot;nofollow&quot; target=&quot;_NEW&quot;&gt;\nhttp://www.rapidhdd.com/images/572770vlcsnap-00004.png&lt;/a&gt;\n &lt;a href=&quot;\nhttp://www.rapidhdd.com/images/658599vlcsnap-00006.png&quot; rel=&quot;nofollow&quot; target=&quot;_NEW&quot;&gt;\nhttp://www.rapidhdd.com/images/658599vlcsnap-00006.png&lt;/a&gt;","torrent":{"xt":"urn:btih:a846181976644054ee3b55ac2459e81576a7b899","amp;dn":"Love.And.Other.Drugs.2010.720p.BRRip.x264.Feel-Free","amp;tr":["udp%3A%2F%2Ftracker.openbittorrent.com%3A80","udp%3A%2F%2Fopen.demonii.com%3A1337","udp%3A%2F%2Ftracker.coppersurfer.tk%3A6969","udp%3A%2F%2Fexodus.desync.com%3A6969"],"infoHash":"a846181976644054ee3b55ac2459e81576a7b899","infoHashBuffer":{"type":"Buffer","data":[168,70,24,25,118,100,64,84,238,59,85,172,36,89,232,21,118,167,184,153]},"announce":[],"urlList":[]}}